HIERARCHY
ROOT Hips
{
 OFFSET 0.000000 0.000000 0.000000
 CHANNELS 6 Xposition Yposition Zposition Yrotation Xrotation Zrotation
 JOINT Chest
 {
  OFFSET 0.000000 11.395451 -0.039534
  CHANNELS 3 Yrotation Xrotation Zrotation
  JOINT Chest2
  {
   OFFSET 0.000000 9.398669 0.071813
   CHANNELS 3 Yrotation Xrotation Zrotation
   JOINT Chest3
   {
    OFFSET 0.000000 8.489801 0.000000
    CHANNELS 3 Yrotation Xrotation Zrotation
    JOINT Chest4
    {
     OFFSET 0.000000 8.489801 0.000000
     CHANNELS 3 Yrotation Xrotation Zrotation
     JOINT Neck
     {
      OFFSET 0.000000 12.404889 0.000000
      CHANNELS 3 Yrotation Xrotation Zrotation
      JOINT Head
      {
       OFFSET 0.000000 8.903270 0.092239
       CHANNELS 3 Yrotation Xrotation Zrotation
       End Site
       {
        OFFSET 0.000000 17.592497 0.007158
       }
      }
     }
     JOINT RightCollar
     {
      OFFSET -3.196775 6.966722 0.000000
      CHANNELS 3 Yrotation Xrotation Zrotation
      JOINT RightShoulder
      {
       OFFSET -15.955896 0.000000 0.000000
       CHANNELS 3 Yrotation Xrotation Zrotation
       JOINT RightElbow
       {
        OFFSET -24.792472 0.000000 0.000000
        CHANNELS 3 Yrotation Xrotation Zrotation
        JOINT RightWrist
        {
         OFFSET -20.900115 0.000000 0.025002
         CHANNELS 3 Yrotation Xrotation Zrotation
         End Site
         {
          OFFSET -16.056692 0.000000 0.000000
         }
        }
       }
      }
     }
     JOINT LeftCollar
     {
      OFFSET 3.196775 6.966722 0.000000
      CHANNELS 3 Yrotation Xrotation Zrotation
      JOINT LeftShoulder
      {
       OFFSET 15.955896 0.000000 0.000000
       CHANNELS 3 Yrotation Xrotation Zrotation
       JOINT LeftElbow
       {
        OFFSET 24.792472 0.000000 0.000000
        CHANNELS 3 Yrotation Xrotation Zrotation
        JOINT LeftWrist
        {
         OFFSET 20.900115 0.000000 0.025002
         CHANNELS 3 Yrotation Xrotation Zrotation
         End Site
         {
          OFFSET 16.056692 0.000000 0.000000
         }
        }
       }
      }
     }
    }
   }
  }
 }
 JOINT RightHip
 {
  OFFSET -9.568995 0.193718 0.019767
  CHANNELS 3 Yrotation Xrotation Zrotation
  JOINT RightKnee
  {
   OFFSET 0.000000 -56.649296 0.015402
   CHANNELS 3 Yrotation Xrotation Zrotation
   JOINT RightAnkle
   {
    OFFSET 0.000000 -41.365147 0.021264
    CHANNELS 3 Yrotation Xrotation Zrotation
    JOINT RightToe
    {
     OFFSET 0.000000 -7.465940 17.672538
     CHANNELS 3 Yrotation Xrotation Zrotation
     End Site
     {
      OFFSET 0.000000 -1.736315 7.837145
     }
    }
   }
  }
 }
 JOINT LeftHip
 {
  OFFSET 9.568995 0.193718 0.019767
  CHANNELS 3 Yrotation Xrotation Zrotation
  JOINT LeftKnee
  {
   OFFSET 0.000000 -56.649296 0.015402
   CHANNELS 3 Yrotation Xrotation Zrotation
   JOINT LeftAnkle
   {
    OFFSET 0.000000 -41.365147 0.021264
    CHANNELS 3 Yrotation Xrotation Zrotation
    JOINT LeftToe
    {
     OFFSET 0.000000 -7.465940 17.672538
     CHANNELS 3 Yrotation Xrotation Zrotation
     End Site
     {
      OFFSET 0.000000 -1.736315 7.837145
     }
    }
   }
  }
 }
}
MOTION
Frames: 8
Frame Time: 0.016667
11.322603 106.690525 169.208445 130.033966 -5.728189 -0.320724 -1.201876 4.350144 0.035867 -0.534107 1.933300 0.027202 -0.534107 1.933300 0.027202 -0.400629 1.449953 0.022090 1.845505 18.248502 -1.062795 3.744809 -2.238550 -2.564302 -0.154962 10.236953 8.112879 10.629356 -11.284970 75.989182 4.864630 -1.938348 0.668885 -2.406157 -0.524053 0.475263 0.321662 7.420124 -7.833544 -2.043577 -10.653903 -75.743349 -6.371878 0.042396 -5.277031 4.012531 -0.068146 1.232020 7.613528 9.386320 0.278066 -0.912906 0.633609 0.212377 -1.906236 -5.116982 -0.198087 0.000000 -0.000000 -0.000000 7.497960 10.609858 2.200614 1.231753 4.556271 0.126387 3.750092 -8.080066 -1.833227 0.001652 -1.314542 -0.143965
11.274979 106.674359 169.165242 130.031983 -5.679916 -0.318878 -1.215904 4.329042 0.043161 -0.540408 1.923901 0.030518 -0.540408 1.923901 0.030518 -0.405364 1.442900 0.024589 1.840274 18.244718 -1.070801 3.737959 -2.245445 -2.577430 -0.136407 10.161127 8.070209 10.549130 -11.284196 75.984003 4.752584 -1.991306 0.640694 -2.435660 -0.503243 0.492648 0.322414 7.323888 -7.821345 -2.025273 -10.633530 -75.761871 -6.450637 0.037077 -5.330418 4.008684 -0.084472 1.225971 7.658984 9.341636 0.260059 -0.955386 0.642504 0.214885 -1.924778 -5.167477 -0.204742 0.000000 -0.000000 0.000000 7.353979 10.572761 2.117896 1.345256 4.528886 0.137602 3.758375 -8.110519 -1.770641 0.001849 -1.265900 -0.167324
11.227355 106.658193 169.122039 130.030002 -5.631643 -0.317034 -1.229926 4.307942 0.050474 -0.546705 1.914503 0.033841 -0.546705 1.914503 0.033841 -0.410097 1.435848 0.027092 1.835046 18.240929 -1.078804 3.731113 -2.252351 -2.590554 -0.117765 10.085300 8.027565 10.468931 -11.283381 75.978723 4.640552 -2.044176 0.612400 -2.465167 -0.482363 0.509930 0.323186 7.227660 -7.809096 -2.006965 -10.613153 -75.780378 -6.529402 0.031595 -5.383773 4.004826 -0.100812 1.219968 7.704433 9.296971 0.241978 -0.997864 0.651412 0.217395 -1.943330 -5.217969 -0.211378 -0.000000 -0.000000 0.000000 7.210028 10.535440 2.035392 1.458732 4.501413 0.148817 3.766583 -8.140957 -1.708031 0.002026 -1.217265 -0.190700
11.182392 106.643344 169.081112 130.024052 -5.583997 -0.314048 -1.240977 4.285813 0.055172 -0.551658 1.904654 0.035971 -0.551658 1.904654 0.035971 -0.413818 1.428459 0.028696 1.834092 18.237458 -1.086205 3.731918 -2.258525 -2.603969 -0.099152 10.013613 7.995750 10.405657 -11.283035 75.966312 4.532016 -2.106671 0.580055 -2.494257 -0.461573 0.525200 0.328346 7.135476 -7.799656 -1.988877 -10.590651 -75.797336 -6.598754 0.025982 -5.434485 4.004624 -0.113738 1.211368 7.748465 9.255588 0.219316 -1.027727 0.651812 0.219956 -1.968298 -5.264608 -0.217167 -0.000000 0.000000 -0.000000 7.082053 10.501937 1.960674 1.552239 4.472679 0.153996 3.781179 -8.172296 -1.646366 0.002183 -1.170104 -0.213808
11.142038 106.630474 169.043125 130.008122 -5.538278 -0.309670 -1.246731 4.261469 0.056346 -0.554226 1.893830 0.036480 -0.554226 1.893830 0.036480 -0.415745 1.420341 0.029076 1.840366 18.233678 -1.091032 3.745168 -2.265100 -2.615048 -0.078625 9.948742 7.981683 10.374440 -11.282919 75.939130 4.422463 -2.182962 0.538853 -2.524670 -0.439360 0.540405 0.344139 7.045541 -7.794851 -1.968115 -10.561045 -75.810520 -6.657861 0.020711 -5.485806 4.010117 -0.122068 1.197868 7.796930 9.219365 0.190866 -1.039145 0.640690 0.221542 -2.006068 -5.305931 -0.220477 0.000000 0.000000 -0.000000 6.978561 10.477571 1.898050 1.614825 4.440022 0.149427 3.809676 -8.205530 -1.584932 0.002334 -1.124733 -0.237781
11.104345 106.618922 169.007413 129.988228 -5.493184 -0.304165 -1.249516 4.236093 0.054899 -0.555451 1.882556 0.035795 -0.555452 1.882556 0.035795 -0.416662 1.411886 0.028555 1.850914 18.230222 -1.095255 3.766068 -2.270931 -2.626419 -0.058204 9.888012 7.978428 10.360168 -11.283314 75.904894 4.316400 -2.268904 0.493722 -2.554648 -0.417244 0.553619 0.364301 6.959647 -7.792893 -1.947576 -10.529313 -75.822139 -6.707530 0.015377 -5.534522 4.019277 -0.127008 1.181736 7.843975 9.186427 0.157855 -1.037963 0.621047 0.223165 -2.050258 -5.343384 -0.222955 0.000000 0.000000 0.000000 6.891016 10.457134 1.843098 1.657457 4.406162 0.138841 3.844566 -8.239675 -1.524435 0.002466 -1.080838 -0.261487
11.066130 106.608027 168.974263 129.978446 -5.445440 -0.297145 -1.253347 4.212205 0.050918 -0.557118 1.871949 0.033998 -0.557118 1.871949 0.033998 -0.417906 1.403932 0.027203 1.861151 18.229308 -1.104193 3.787872 -2.271853 -2.646260 -0.043959 9.827536 7.975984 10.334353 -11.285534 75.879602 4.230841 -2.361752 0.455285 -2.578524 -0.399977 0.557152 0.374429 6.887209 -7.791227 -1.936160 -10.508275 -75.837357 -6.740826 0.008778 -5.568315 4.029675 -0.128703 1.167169 7.870637 9.154396 0.119448 -1.029087 0.593383 0.227931 -2.088114 -5.377486 -0.228702 0.000000 0.000000 0.000000 6.809810 10.428907 1.790300 1.693076 4.378027 0.127354 3.869795 -8.272677 -1.467977 0.002550 -1.038934 -0.281245
11.025815 106.597411 168.943961 129.984336 -5.392902 -0.288066 -1.260314 4.190276 0.044628 -0.560157 1.862219 0.031208 -0.560157 1.862219 0.031208 -0.420176 1.396637 0.025111 1.870971 18.232525 -1.122323 3.811805 -2.264729 -2.682706 -0.039262 9.763846 7.971654 10.277023 -11.289500 75.869852 4.174348 -2.462340 0.427337 -2.591713 -0.390080 0.541939 0.368573 6.833765 -7.789339 -1.936128 -10.504885 -75.861233 -6.752869 0.000851 -5.578854 4.039444 -0.127519 1.157333 7.864624 9.123151 0.072765 -1.006710 0.553920 0.239240 -2.115848 -5.408787 -0.242039 -0.000000 0.000000 -0.000000 6.730491 10.387132 1.737762 1.727432 4.359174 0.115536 3.878265 -8.304371 -1.417416 0.002566 -0.999064 -0.294299
